<?xml version="1.0" encoding="utf-8"?>
<svg xmlns="http://www.w3.org/2000/svg" viewBox="10.661 55.97 417.377 108.209" width="417.377px" height="108.209px"><text style="fill: rgb(51, 51, 51); font-family: Arial; font-size: 96px; font-weight: 550; white-space: pre;" transform="matrix(0.634331, 0, 0, 0.693069, 65.142975, 30.811331)"><tspan x="102.345" y="118.337" style="fill: rgb(3, 3, 4);">Promptly</tspan><tspan style="fill: color(srgb-linear 0.04 0.091 0.432); font-weight: 400;">AI</tspan><tspan x="102.345" dy="1em">​</tspan><tspan x="102.345" dy="1em">​</tspan></text><text style="fill: rgb(54, 49, 49); font-family: Arial, sans-serif; font-size: 30px; white-space: pre;" transform="matrix(0.721801, 0, 0, 0.741913, 68.037399, 30.576029)" x="116.205" y="147.122" dx="27.719 0 -1.066 0 0 0 0 0 -1.067" dy="18.124">Intelligent AI Assistant</text><text style="white-space: pre; fill: rgb(51, 51, 51); font-family: Arial, sans-serif; font-size: 28px;" x="389.126" y="137.527" transform="matrix(0.983403, 0, 0, 0.896728, 28.520947, 20.924086)"> </text><path d="M 116.311 63.842 C 118.217 64.795 118.217 64.795 119.262 66.532 C 119.754 70.057 119.852 72.003 117.664 74.995 C 114.689 76.78 112.925 76.812 109.428 76.396 C 108.454 75.508 108.454 75.508 107.461 74.603 C 104.67 74.377 102.017 74.271 99.225 74.266 C 98.092 74.234 98.092 74.234 96.935 74.2 C 92.214 74.174 92.214 74.174 88.246 76.418 C 87.772 77.002 87.298 77.587 86.809 78.19 C 89.081 78.486 91.353 78.781 93.693 79.086 C 94.18 77.755 94.18 77.755 94.676 76.396 C 97.812 75.668 97.812 75.668 101.56 75.499 C 104.511 77.293 104.511 77.293 106.477 79.983 C 106.723 83.234 106.723 83.234 105.494 86.26 C 102.298 88.166 102.298 88.166 98.61 88.95 C 97.865 88.531 97.119 88.111 96.351 87.679 C 91.616 85.152 86.084 85.831 80.73 85.86 C 78.651 85.868 76.575 85.842 74.496 85.814 C 67.162 85.779 61.508 86.001 55.34 89.847 C 51.742 93.652 50.808 97.291 51.096 102.276 C 51.81 106.679 53.479 108.958 57.307 111.649 C 63.164 114.653 68.51 114.224 75.07 114.227 C 76.714 114.243 76.714 114.243 78.391 114.26 C 79.437 114.262 80.481 114.264 81.558 114.266 C 82.998 114.271 82.998 114.271 84.467 114.277 C 86.993 114.269 86.993 114.269 88.776 112.265 C 95.818 111.654 95.818 111.654 98.61 113.722 C 99.885 116.483 100.068 118.263 99.593 121.233 C 97.995 123.362 97.995 123.362 95.66 124.819 C 92.649 125.212 92.649 125.212 89.759 124.819 C 89.083 124.147 89.083 124.147 88.393 123.461 C 86.891 121.941 86.891 121.941 84.586 121.867 C 83.405 121.914 83.405 121.914 82.2 121.962 C 81.404 121.986 80.61 122.01 79.792 122.035 C 78.884 122.082 78.884 122.082 77.959 122.129 C 79.429 124.054 79.429 124.054 81.892 125.716 C 84.708 126.026 87.087 126.139 89.882 126.052 C 90.599 126.052 91.315 126.051 92.053 126.049 C 96.281 126.092 96.281 126.092 99.593 123.923 C 103.09 123.508 104.855 123.54 107.829 125.324 C 110.018 128.317 109.92 130.262 109.428 133.787 C 108.383 135.525 108.383 135.525 106.477 136.477 C 102.183 136.827 100.277 136.893 96.643 134.683 C 94.675 134.704 92.707 134.73 90.739 134.799 C 84.811 134.933 79.858 134.973 75.278 131.202 C 73.619 129.638 72.063 128.02 70.508 126.37 C 66.772 122.449 64.372 121.111 58.567 120.655 C 53.561 119.944 49.887 116.673 46.913 113.103 C 42.763 107.232 41.687 102.193 42.556 95.227 C 45 88.234 49.437 83.209 56.57 79.832 C 60.042 78.875 63.031 79.135 66.649 79.255 C 70.382 79.23 73.638 79.142 76.686 77.026 C 78.278 75.522 79.758 73.974 81.217 72.361 C 84.653 68.58 87.143 66.278 92.637 65.626 C 95.955 65.439 99.231 65.487 102.552 65.597 C 107.763 65.648 110.774 63.392 116.311 63.842 Z" fill="#1280D6" style="stroke-width: 1;"/><path d="M 63.284 63.755 C 64.426 63.758 65.567 63.76 66.742 63.763 C 68.522 63.775 68.522 63.775 70.337 63.786 C 72.14 63.793 72.14 63.793 73.979 63.799 C 76.945 63.809 79.911 63.824 82.876 63.842 C 82.227 64.73 81.578 65.617 80.909 66.532 C 80.26 66.532 79.611 66.532 78.942 66.532 C 78.678 67.087 78.415 67.642 78.144 68.213 C 76.975 70.119 76.975 70.119 74.025 71.912 C 72.131 72.278 72.131 72.278 69.996 72.487 C 55.166 74.103 55.166 74.103 43.463 82.107 C 39.676 86.725 36.926 91.149 36.537 97.03 C 36.162 102.491 34.372 106.195 31.247 110.808 C 30.436 112.047 29.626 113.288 28.819 114.529 C 28.46 115.064 28.101 115.599 27.73 116.152 C 26.669 117.789 26.669 117.789 25.838 120.336 C 28.11 120.632 30.382 120.928 32.722 121.233 C 33.056 123.194 33.383 125.156 33.705 127.118 C 33.888 128.21 34.07 129.302 34.259 130.428 C 34.675 133.676 34.763 136.797 34.689 140.064 C 35.91 140.012 37.131 139.96 38.388 139.907 C 40.003 139.865 41.618 139.824 43.233 139.784 C 44.035 139.746 44.839 139.709 45.666 139.67 C 49.79 139.594 51.794 139.682 55.248 141.896 C 57.592 144.914 58.927 147.877 60.073 151.385 C 60.286 151.984 60.498 152.583 60.717 153.2 C 61.613 155.792 62.224 157.956 62.224 160.689 C 58.979 160.689 55.734 160.689 52.39 160.689 C 50.719 156.78 49.275 153.169 48.457 149.031 C 47.39 149.073 46.322 149.115 45.222 149.158 C 43.801 149.191 42.38 149.224 40.958 149.255 C 40.257 149.286 39.557 149.315 38.834 149.347 C 33.735 149.432 30.783 148.633 26.822 145.444 C 24.581 141.938 24.487 138.406 24.24 134.404 C 24.13 132.716 24.13 132.716 24.018 130.995 C 23.97 130.141 23.922 129.287 23.871 128.406 C 23.256 128.353 22.639 128.298 22.005 128.242 C 20.799 128.129 20.799 128.129 19.569 128.015 C 18.371 127.905 18.371 127.905 17.149 127.794 C 15.021 127.51 15.021 127.51 13.054 126.613 C 12.156 120.206 15.228 116.292 18.771 110.92 C 23.239 103.858 25.928 98.171 27.198 90.089 C 28.759 82.549 33.858 75.582 40.589 71.016 C 48.223 66.778 54.303 63.715 63.284 63.755 Z" fill="#1180D6" style="stroke-width: 1;"/><path d="M 88.161 87.662 C 91.726 88.054 91.726 88.054 94.185 89.959 C 95.66 92.537 95.66 92.537 95.66 95.34 C 94.676 97.918 94.676 97.918 93.078 99.655 C 89.744 101.016 87.356 100.434 83.859 99.711 C 83.535 99.415 83.21 99.119 82.876 98.814 C 81.484 98.737 80.088 98.718 78.692 98.727 C 77.433 98.732 77.433 98.732 76.147 98.735 C 74.824 98.747 74.824 98.747 73.472 98.759 C 72.585 98.762 71.698 98.767 70.785 98.771 C 68.587 98.781 66.389 98.796 64.191 98.814 C 64.191 99.702 64.191 100.59 64.191 101.505 C 68.594 103.512 74.483 102.754 79.373 102.814 C 80.839 102.838 82.305 102.875 83.771 102.924 C 92.247 103.399 92.247 103.399 100.122 101.093 C 104.002 97.686 105.265 94.548 106.477 89.847 C 110.111 87.638 112.017 87.704 116.311 88.054 C 118.217 89.007 118.217 89.007 119.262 90.744 C 119.747 94.222 119.909 96.182 117.664 99.095 C 115.328 100.608 115.328 100.608 112.378 101.449 C 108.812 102.6 107.597 104.082 105.494 106.885 C 109.385 110.095 112.195 111.788 117.295 113.162 C 119.262 114.955 119.262 114.955 119.63 117.982 C 119.262 121.233 119.262 121.233 117.725 123.474 C 115.328 124.819 115.328 124.819 111.825 124.819 C 108.444 123.923 108.444 123.923 106.662 122.353 C 105.494 120.336 105.494 120.336 104.695 118.206 C 103.052 114.894 100.868 112.599 97.627 110.472 C 94.709 109.966 92.591 109.777 89.695 109.845 C 88.578 109.836 88.578 109.836 87.44 109.827 C 85.077 109.812 82.718 109.832 80.356 109.856 C 77.991 109.866 75.626 109.868 73.261 109.855 C 71.795 109.849 70.327 109.856 68.861 109.879 C 64.495 109.876 61.736 109.375 58.291 106.885 C 55.98 103.349 55.236 101.41 55.771 97.302 C 57.709 93.554 59.177 92.645 63.208 90.744 C 66.568 90.246 69.888 90.201 73.287 90.183 C 75.055 90.161 76.822 90.13 78.589 90.093 C 79.365 90.087 80.141 90.082 80.94 90.077 C 84.078 89.705 84.66 88.075 88.161 87.662 Z" fill="#1280D6" style="stroke-width: 1;"/><text style="white-space: pre; fill: rgb(51, 51, 51); font-family: Arial, sans-serif; font-size: 28px;" x="259.328" y="349.813"> </text><text style="white-space: pre; fill: rgb(51, 51, 51); font-family: Arial, sans-serif; font-size: 28px;" x="263.326" y="244.536"> </text></svg>