<?xml version="1.0" encoding="UTF-8"?>
<svg version="1.1" xmlns="http://www.w3.org/2000/svg" width="108" height="108">
<path d="M0 0 C1.9375 1.0625 1.9375 1.0625 3 3 C3.50030235 6.93094707 3.5996142 9.1005787 1.375 12.4375 C-1.65009912 14.42769679 -3.44399109 14.46382725 -7 14 C-7.99 13.01 -7.99 13.01 -9 12 C-11.83802152 11.7473397 -14.53615779 11.62971568 -17.375 11.625 C-18.52742188 11.58826172 -18.52742188 11.58826172 -19.703125 11.55078125 C-24.50441616 11.52167717 -24.50441616 11.52167717 -28.5390625 14.0234375 C-29.02117187 14.67570313 -29.50328125 15.32796875 -30 16 C-27.69 16.33 -25.38 16.66 -23 17 C-22.505 15.515 -22.505 15.515 -22 14 C-18.8125 13.1875 -18.8125 13.1875 -15 13 C-12 15 -12 15 -10 18 C-9.75 21.625 -9.75 21.625 -11 25 C-14.25 27.125 -14.25 27.125 -18 28 C-18.75821045 27.53198975 -19.5164209 27.06397949 -20.29760742 26.58178711 C-25.11264676 23.76340786 -30.73675371 24.52062354 -36.18237305 24.55395508 C-38.29641093 24.56243546 -40.40771503 24.53372987 -42.52148438 24.50195312 C-49.97885829 24.46243459 -55.72871161 24.71114841 -62 29 C-65.65908494 33.2424359 -66.60948951 37.30024733 -66.31640625 42.859375 C-65.59064608 47.76945615 -63.89312264 50.3115513 -60 53.3125 C-54.04445591 56.66249355 -48.60870511 56.18362815 -41.9375 56.1875 C-40.2659082 56.20586914 -40.2659082 56.20586914 -38.56054688 56.22460938 C-37.49771484 56.22654297 -36.43488281 56.22847656 -35.33984375 56.23046875 C-33.87599243 56.23663208 -33.87599243 56.23663208 -32.38256836 56.24291992 C-29.81327076 56.23442885 -29.81327076 56.23442885 -28 54 C-20.83934426 53.31803279 -20.83934426 53.31803279 -18 55.625 C-16.70381011 58.703451 -16.51711137 60.68876368 -17 64 C-18.625 66.375 -18.625 66.375 -21 68 C-24.0625 68.4375 -24.0625 68.4375 -27 68 C-27.68835938 67.24976562 -27.68835938 67.24976562 -28.390625 66.484375 C-29.91752845 64.78917193 -29.91752845 64.78917193 -32.26171875 64.70703125 C-33.46248047 64.75923828 -33.46248047 64.75923828 -34.6875 64.8125 C-35.49574219 64.83957031 -36.30398437 64.86664063 -37.13671875 64.89453125 C-38.05904297 64.94673828 -38.05904297 64.94673828 -39 65 C-37.50546216 67.14599723 -37.50546216 67.14599723 -35 69 C-32.13757599 69.34536404 -29.71801156 69.47163188 -26.875 69.375 C-26.14667969 69.37371094 -25.41835937 69.37242188 -24.66796875 69.37109375 C-20.36859553 69.41901816 -20.36859553 69.41901816 -17 67 C-13.44399109 66.53617275 -11.65009912 66.57230321 -8.625 68.5625 C-6.4003858 71.8994213 -6.49969765 74.06905293 -7 78 C-8.0625 79.9375 -8.0625 79.9375 -10 81 C-14.36706908 81.38991688 -16.30513897 81.46324069 -20 79 C-22.00163529 79.02279295 -24.00363376 79.05186315 -26.00390625 79.12915039 C-32.03232978 79.27750225 -37.06916069 79.32296247 -41.7265625 75.1171875 C-43.41281205 73.37319809 -44.99509423 71.5682058 -46.57641602 69.72900391 C-50.37533571 65.35566669 -52.81669411 63.86327551 -58.71875 63.35546875 C-63.80900968 62.56229473 -67.54532592 58.9142353 -70.5703125 54.93359375 C-74.79000679 48.38703946 -75.88457766 42.76801531 -75 35 C-72.5152561 27.20035547 -68.00335533 21.59722785 -60.75 17.83203125 C-57.21951112 16.76385777 -54.18065617 17.05346036 -50.5 17.1875 C-46.70554706 17.15991338 -43.39459506 17.06161702 -40.29443359 14.70166016 C-38.6752811 13.02487939 -37.17045417 11.29823166 -35.6875 9.5 C-32.1927531 5.28406136 -29.66157702 2.71715964 -24.07421875 1.98828125 C-20.69985171 1.78060841 -17.36888116 1.83438176 -13.9921875 1.95703125 C-8.69365812 2.01406043 -5.63095723 -0.50276404 0 0 Z " fill="#1280D6" transform="translate(105,0)"/>
<path d="M0 0 C1.16015625 0.00322266 2.3203125 0.00644531 3.515625 0.00976562 C5.32546875 0.02233398 5.32546875 0.02233398 7.171875 0.03515625 C9.00492188 0.04192383 9.00492188 0.04192383 10.875 0.04882812 C13.89067446 0.0606081 16.90624998 0.07705772 19.921875 0.09765625 C19.261875 1.08765625 18.601875 2.07765625 17.921875 3.09765625 C17.261875 3.09765625 16.601875 3.09765625 15.921875 3.09765625 C15.65375 3.71640625 15.385625 4.33515625 15.109375 4.97265625 C13.921875 7.09765625 13.921875 7.09765625 10.921875 9.09765625 C8.99584961 9.50488281 8.99584961 9.50488281 6.82421875 9.73828125 C-8.25534995 11.54065429 -8.25534995 11.54065429 -20.15625 20.46484375 C-24.0074206 25.61539305 -26.8030063 30.54935849 -27.19970703 37.10766602 C-27.58002341 43.19749909 -29.40081175 47.32796637 -32.578125 52.47265625 C-33.40301912 53.85429005 -34.22601705 55.23705817 -35.046875 56.62109375 C-35.41232422 57.21841309 -35.77777344 57.81573242 -36.15429688 58.43115234 C-37.2332315 60.25733692 -37.2332315 60.25733692 -38.078125 63.09765625 C-35.768125 63.42765625 -33.458125 63.75765625 -31.078125 64.09765625 C-30.73847026 66.28418364 -30.40670023 68.4719365 -30.078125 70.66015625 C-29.8925 71.87832031 -29.706875 73.09648438 -29.515625 74.3515625 C-29.09257423 77.97393473 -29.00311075 81.45477671 -29.078125 85.09765625 C-27.83675781 85.03964844 -26.59539063 84.98164062 -25.31640625 84.921875 C-23.67451686 84.87496387 -22.03258668 84.82946516 -20.390625 84.78515625 C-19.57400391 84.74326172 -18.75738281 84.70136719 -17.91601562 84.65820312 C-13.7221923 84.57330792 -11.68426394 84.67156665 -8.171875 87.140625 C-5.78853821 90.50664356 -4.43088381 93.81044308 -3.265625 97.72265625 C-3.04970703 98.39039062 -2.83378906 99.058125 -2.61132812 99.74609375 C-1.7006647 102.63708875 -1.078125 105.05015054 -1.078125 108.09765625 C-4.378125 108.09765625 -7.678125 108.09765625 -11.078125 108.09765625 C-12.77751815 103.7383434 -14.24587645 99.71138366 -15.078125 95.09765625 C-16.16351563 95.1440625 -17.24890625 95.19046875 -18.3671875 95.23828125 C-19.81247231 95.27582112 -21.25778711 95.31221889 -22.703125 95.34765625 C-23.41597656 95.38117188 -24.12882812 95.4146875 -24.86328125 95.44921875 C-30.04833215 95.5443573 -33.05070337 94.65339787 -37.078125 91.09765625 C-39.35649491 87.18712076 -39.45285741 83.24826153 -39.703125 78.78515625 C-39.81527344 76.90376953 -39.81527344 76.90376953 -39.9296875 74.984375 C-39.97867188 74.03175781 -40.02765625 73.07914062 -40.078125 72.09765625 C-40.70460938 72.03707031 -41.33109375 71.97648437 -41.9765625 71.9140625 C-43.20246094 71.78837891 -43.20246094 71.78837891 -44.453125 71.66015625 C-45.67128906 71.53833984 -45.67128906 71.53833984 -46.9140625 71.4140625 C-49.078125 71.09765625 -49.078125 71.09765625 -51.078125 70.09765625 C-51.99098056 62.95186221 -48.86716136 58.58726913 -45.265625 52.59765625 C-40.7212518 44.7211348 -37.98721316 38.38067902 -36.6953125 29.3671875 C-35.10823945 20.95971823 -29.92320049 13.18883339 -23.078125 8.09765625 C-15.31532178 3.37164646 -9.13369886 -0.04477303 0 0 Z " fill="#1180D6" transform="translate(51.078125,-0.09765625)"/>
<path d="M0 0 C3.625 0.4375 3.625 0.4375 6.125 2.5625 C7.625 5.4375 7.625 5.4375 7.625 8.5625 C6.625 11.4375 6.625 11.4375 5 13.375 C1.60835411 14.89231527 -0.81877516 14.24268298 -4.375 13.4375 C-4.705 13.1075 -5.035 12.7775 -5.375 12.4375 C-6.79070123 12.35098389 -8.210595 12.33045096 -9.62890625 12.33984375 C-10.90991211 12.34467773 -10.90991211 12.34467773 -12.21679688 12.34960938 C-13.56354492 12.36217773 -13.56354492 12.36217773 -14.9375 12.375 C-15.83919922 12.37951172 -16.74089844 12.38402344 -17.66992188 12.38867188 C-19.90501314 12.40049775 -22.13997437 12.4169778 -24.375 12.4375 C-24.375 13.4275 -24.375 14.4175 -24.375 15.4375 C-19.89796328 17.67601836 -13.9091368 16.82993561 -8.93676758 16.89746094 C-7.44587967 16.92400013 -5.95517298 16.96485265 -4.46508789 17.02050781 C4.15474128 17.55023949 4.15474128 17.55023949 12.16162109 14.9777832 C16.10823177 11.17938541 17.39164009 7.6792796 18.625 2.4375 C22.31986103 -0.02574069 24.25793092 0.04758312 28.625 0.4375 C30.5625 1.5 30.5625 1.5 31.625 3.4375 C32.11870835 7.31663702 32.28254073 9.50176897 30 12.75 C27.625 14.4375 27.625 14.4375 24.625 15.375 C20.99879488 16.65928098 19.76396765 18.31131652 17.625 21.4375 C21.58186255 25.0175185 24.438897 26.9052423 29.625 28.4375 C31.625 30.4375 31.625 30.4375 32 33.8125 C31.625 37.4375 31.625 37.4375 30.0625 39.9375 C27.625 41.4375 27.625 41.4375 24.0625 41.4375 C20.625 40.4375 20.625 40.4375 18.8125 38.6875 C17.625 36.4375 17.625 36.4375 16.8125 34.0625 C15.14172498 30.36920786 12.92086878 27.80932488 9.625 25.4375 C6.6572916 24.87320805 4.50362203 24.66247681 1.55859375 24.73828125 C0.42382347 24.72839424 0.42382347 24.72839424 -0.73387146 24.7183075 C-3.13599246 24.70090834 -5.5355044 24.72274023 -7.9375 24.75 C-10.34254138 24.76132748 -12.7468113 24.7639124 -15.15184021 24.7495575 C-16.64327264 24.7422121 -18.13488508 24.75023987 -19.62611389 24.7759552 C-24.06638856 24.77316441 -26.87164643 24.21402341 -30.375 21.4375 C-32.72565577 17.49446452 -33.48111213 15.33187366 -32.9375 10.75 C-30.96628712 6.57102869 -29.47445082 5.55728218 -25.375 3.4375 C-21.95785383 2.88258494 -18.58214383 2.8324259 -15.125 2.8125 C-13.32798637 2.78704655 -11.53106271 2.75358884 -9.734375 2.7109375 C-8.94514648 2.70497559 -8.15591797 2.69901367 -7.34277344 2.69287109 C-4.15238289 2.27883282 -3.56097426 0.46160777 0 0 Z " fill="#1280D6" transform="translate(76.375,26.5625)"/>
</svg>
